<svg width="25" height="25" viewBox="0 0 25 25" fill="none" xmlns="http://www.w3.org/2000/svg">
<path d="M12.335 5.92984C12.6114 5.92984 12.885 5.98425 13.1403 6.08996C13.3956 6.19567 13.6276 6.35061 13.823 6.54594C14.0185 6.74127 14.1735 6.97316 14.2792 7.22836C14.385 7.48357 14.4394 7.7571 14.4394 8.03334C14.4394 8.30957 14.385 8.58311 14.2792 8.83831C14.1735 9.09352 14.0185 9.32541 13.823 9.52074C13.6276 9.71607 13.3956 9.87101 13.1403 9.97672C12.885 10.0824 12.6114 10.1368 12.335 10.1368C11.7769 10.1368 11.2417 9.91522 10.847 9.52074C10.4524 9.12626 10.2307 8.59122 10.2307 8.03334C10.2307 7.47546 10.4524 6.94042 10.847 6.54594C11.2417 6.15146 11.7769 5.92984 12.335 5.92984ZM12.335 14.9448C15.3112 14.9448 18.4477 16.4073 18.4477 17.0483V18.1502H6.22232V17.0483C6.22232 16.4073 9.35884 14.9448 12.335 14.9448ZM12.335 4.02667C10.1204 4.02667 8.32669 5.81966 8.32669 8.03334C8.32669 10.247 10.1204 12.04 12.335 12.04C14.5496 12.04 16.3434 10.247 16.3434 8.03334C16.3434 5.81966 14.5496 4.02667 12.335 4.02667ZM12.335 13.0417C9.65946 13.0417 4.31836 14.3839 4.31836 17.0483V20.0533H20.3517V17.0483C20.3517 14.3839 15.0106 13.0417 12.335 13.0417Z" fill="#1B1B1B"/>
</svg>
