<svg width="17" height="17" viewBox="0 0 17 17" fill="none" xmlns="http://www.w3.org/2000/svg">
<path d="M10.7838 12.5506C9.9799 12.5513 9.19128 12.3309 8.50426 11.9134C7.81725 11.496 7.2583 10.8976 6.8886 10.1837H10.7838L11.4601 8.83123H6.44228C6.40847 8.60807 6.38818 8.3849 6.38818 8.15498C6.38818 7.92505 6.40847 7.70189 6.44228 7.47873H10.7838L11.4601 6.12623H6.8886C7.25896 5.41291 7.81805 4.81496 8.50492 4.39759C9.19179 3.98023 9.98007 3.75945 10.7838 3.75935C11.8726 3.75935 12.8734 4.15834 13.6443 4.82107L14.8413 3.6241C13.7278 2.62154 12.2821 2.06738 10.7838 2.06873C8.1329 2.06873 5.88775 3.76612 5.0492 6.12623H2.6688L1.99255 7.47873H4.73813C4.68336 7.9279 4.68336 8.38206 4.73813 8.83123H2.6688L1.99255 10.1837H5.0492C5.88775 12.5438 8.1329 14.2412 10.7838 14.2412C12.3459 14.2412 13.7661 13.6529 14.8413 12.6859L13.6376 11.4889C12.8734 12.1516 11.8793 12.5506 10.7838 12.5506Z" fill="#5F605E"/>
</svg>
