<svg width="14" height="14" viewBox="0 0 14 14" fill="none" xmlns="http://www.w3.org/2000/svg">
<path d="M2.88675 3.84C3.94977 5.20191 5.91268 7.72591 5.91268 7.72591V10.8809C5.91268 11.1701 6.1495 11.4067 6.43894 11.4067H7.49144C7.78087 11.4067 8.01769 11.1701 8.01769 10.8809V7.72591C8.01769 7.72591 9.97534 5.20191 11.0384 3.84C11.0987 3.76237 11.136 3.66938 11.146 3.57162C11.156 3.47385 11.1383 3.37524 11.095 3.28702C11.0517 3.19879 10.9844 3.12449 10.9009 3.07259C10.8174 3.02068 10.721 2.99324 10.6226 2.99341H3.30248C2.8657 2.99341 2.61836 3.49295 2.88675 3.84Z" fill="white"/>
</svg>
