<svg width="17" height="17" viewBox="0 0 17 17" fill="none" xmlns="http://www.w3.org/2000/svg">
<path d="M14.0839 12.5103C14.3814 12.037 14.5573 11.4892 14.5573 10.8941C14.5573 9.21023 13.198 7.85097 11.5141 7.85097C9.83027 7.85097 8.47101 9.21023 8.47101 10.8941C8.47101 12.578 9.83027 13.9372 11.5074 13.9372C12.1025 13.9372 12.657 13.7614 13.1236 13.4638L15.2335 15.5737L16.1938 14.6135L14.0839 12.5103ZM11.5141 12.5847C11.0658 12.5847 10.6357 12.4066 10.3187 12.0896C10.0016 11.7725 9.82351 11.3425 9.82351 10.8941C9.82351 10.4457 10.0016 10.0157 10.3187 9.69864C10.6357 9.38159 11.0658 9.20347 11.5141 9.20347C11.9625 9.20347 12.3925 9.38159 12.7096 9.69864C13.0266 10.0157 13.2048 10.4457 13.2048 10.8941C13.2048 11.3425 13.0266 11.7725 12.7096 12.0896C12.3925 12.4066 11.9625 12.5847 11.5141 12.5847ZM11.2707 6.8366C10.7703 6.85012 10.2901 6.95832 9.85056 7.14091L9.47862 6.57962L6.90887 10.7588L4.87336 8.37845L2.41857 12.3075L1.31628 11.5162L4.69753 6.10625L6.72628 8.47312L9.43128 4.0775L11.2707 6.8366ZM13.0222 7.17472C12.5894 6.98537 12.1228 6.87041 11.6359 6.84336L15.0983 1.3725L16.1938 2.17047L13.0222 7.17472Z" fill="#5F605E"/>
</svg>
