<svg width="25" height="25" viewBox="0 0 25 25" fill="none" xmlns="http://www.w3.org/2000/svg">
<path d="M11.3983 23.6493V20.0433C6.37995 19.7829 2.3833 15.616 2.3833 10.5375C2.3833 5.28877 6.6504 1.02167 11.8991 1.02167C17.1479 1.02167 21.415 5.28877 21.415 10.5375C21.415 15.4958 17.9692 20.4841 12.8307 22.9582L11.3983 23.6493ZM11.8991 3.025C7.75223 3.025 4.38663 6.3906 4.38663 10.5375C4.38663 14.6844 7.75223 18.05 11.8991 18.05H13.4016V20.3538C17.0477 18.05 19.4116 14.2637 19.4116 10.5375C19.4116 6.3906 16.046 3.025 11.8991 3.025ZM10.8975 14.5442H12.9008V16.5475H10.8975V14.5442ZM12.9008 13.0417H10.8975C10.8975 9.78625 13.9025 10.0367 13.9025 8.03333C13.9025 6.9315 13.001 6.03 11.8991 6.03C10.7973 6.03 9.8958 6.9315 9.8958 8.03333H7.89247C7.89247 5.81965 9.68545 4.02667 11.8991 4.02667C14.1128 4.02667 15.9058 5.81965 15.9058 8.03333C15.9058 10.5375 12.9008 10.7879 12.9008 13.0417Z" fill="#1B1B1B"/>
</svg>
