<svg width="25" height="25" viewBox="0 0 25 25" fill="none" xmlns="http://www.w3.org/2000/svg">
<path d="M19.9104 13.0217C19.9505 12.7011 19.9806 12.3806 19.9806 12.04C19.9806 11.6995 19.9505 11.3789 19.9104 11.0584L22.0248 9.40565C22.2152 9.2554 22.2653 8.98495 22.1451 8.76458L20.1409 5.29881C20.0818 5.19547 19.9879 5.11653 19.8758 5.07615C19.7638 5.03577 19.6411 5.03658 19.5296 5.07845L17.0344 6.08011C16.5133 5.67945 15.9522 5.3489 15.3409 5.09848L14.9601 2.44406C14.9435 2.32621 14.8845 2.21845 14.7941 2.14099C14.7037 2.06354 14.5882 2.02172 14.4691 2.02336H10.4608C10.2102 2.02336 9.99981 2.20366 9.96975 2.44406L9.58895 5.09848C8.97768 5.3489 8.41652 5.68946 7.89543 6.08011L5.40025 5.07845C5.34214 5.05874 5.28123 5.04859 5.21987 5.0484C5.04952 5.0484 4.87916 5.13855 4.78898 5.29881L2.78481 8.76458C2.65454 8.98495 2.71466 9.2554 2.90506 9.40565L5.01945 11.0584C4.97937 11.3789 4.94931 11.7095 4.94931 12.04C4.94931 12.3706 4.97937 12.7011 5.01945 13.0217L2.90506 14.6744C2.71466 14.8247 2.66456 15.0951 2.78481 15.3155L4.78898 18.7812C4.84805 18.8846 4.94201 18.9635 5.05403 19.0039C5.16604 19.0443 5.28878 19.0435 5.40025 19.0016L7.89543 17.9999C8.41652 18.4006 8.97768 18.7312 9.58895 18.9816L9.96975 21.636C9.99981 21.8764 10.2102 22.0567 10.4608 22.0567H14.4691C14.7196 22.0567 14.9301 21.8764 14.9601 21.636L15.3409 18.9816C15.9522 18.7312 16.5133 18.3906 17.0344 17.9999L19.5296 19.0016C19.5897 19.0216 19.6499 19.0317 19.71 19.0317C19.8803 19.0317 20.0507 18.9415 20.1409 18.7812L22.1451 15.3155C22.2653 15.0951 22.2152 14.8247 22.0248 14.6744L19.9104 13.0217ZM17.9263 11.3088C17.9664 11.6193 17.9764 11.8297 17.9764 12.04C17.9764 12.2504 17.9564 12.4707 17.9263 12.7712L17.786 13.9031L18.6779 14.6043L19.7601 15.4457L19.0586 16.6577L17.786 16.1469L16.7438 15.7262L15.842 16.4073C15.4111 16.7278 15.0002 16.9682 14.5893 17.1385L13.5271 17.5692L13.3668 18.7011L13.1664 20.0534H11.7635L11.5731 18.7011L11.4127 17.5692L10.3505 17.1385C9.91964 16.9582 9.51881 16.7278 9.11797 16.4273L8.20608 15.7262L7.14387 16.1569L5.87122 16.6677L5.16977 15.4557L6.25202 14.6143L7.14387 13.9131L7.00358 12.7813C6.97352 12.4707 6.95347 12.2404 6.95347 12.04C6.95347 11.8397 6.97352 11.6093 7.00358 11.3088L7.14387 10.1769L6.25202 9.47576L5.16977 8.63436L5.87122 7.42235L7.14387 7.9332L8.18604 8.3539L9.08791 7.67276C9.51881 7.35223 9.92966 7.11183 10.3405 6.94155L11.4027 6.51083L11.5631 5.37895L11.7635 4.0267H13.1564L13.3468 5.37895L13.5071 6.51083L14.5693 6.94155C15.0002 7.12185 15.401 7.35223 15.8019 7.65273L16.7138 8.3539L17.776 7.92318L19.0486 7.41233L19.7501 8.62435L18.6779 9.47576L17.786 10.1769L17.9263 11.3088ZM12.4649 8.03336C10.2503 8.03336 8.4566 9.82635 8.4566 12.04C8.4566 14.2537 10.2503 16.0467 12.4649 16.0467C14.6795 16.0467 16.4733 14.2537 16.4733 12.04C16.4733 9.82635 14.6795 8.03336 12.4649 8.03336ZM12.4649 14.0434C11.3626 14.0434 10.4608 13.1419 10.4608 12.04C10.4608 10.9382 11.3626 10.0367 12.4649 10.0367C13.5672 10.0367 14.4691 10.9382 14.4691 12.04C14.4691 13.1419 13.5672 14.0434 12.4649 14.0434Z" fill="#1B1B1B"/>
</svg>
