<svg width="25" height="25" viewBox="0 0 25 25" fill="none" xmlns="http://www.w3.org/2000/svg">
<path d="M20.1701 16.9482C20.571 16.247 20.8716 15.4457 20.8716 14.5442C20.8716 12.04 18.8674 10.0367 16.3622 10.0367C13.857 10.0367 11.8529 12.04 11.8529 14.5442C11.8529 17.0484 13.857 19.0517 16.3622 19.0517C17.2641 19.0517 18.0658 18.7512 18.7672 18.3505L21.9739 21.5559L23.3768 20.1535L20.1701 16.9482ZM16.3622 17.0484C14.9593 17.0484 13.857 15.9465 13.857 14.5442C13.857 13.1419 14.9593 12.04 16.3622 12.04C17.7651 12.04 18.8674 13.1419 18.8674 14.5442C18.8674 15.9465 17.7651 17.0484 16.3622 17.0484ZM12.8549 20.0534V22.0567C7.32344 22.0567 2.83411 17.5692 2.83411 12.04C2.83411 6.51084 7.32344 2.02338 12.8549 2.02338C17.705 2.02338 21.7434 5.46911 22.6754 10.0367H20.601C20.2885 8.82653 19.6971 7.70621 18.8741 6.76528C18.0511 5.82435 17.0193 5.08889 15.8612 4.61769V5.02838C15.8612 6.13021 14.9593 7.03171 13.857 7.03171H11.8529V9.03504C11.8529 9.58596 11.4019 10.0367 10.8508 10.0367H8.84661V12.04H10.8508V15.045H9.84869L5.04871 10.2471C4.91844 10.828 4.83827 11.419 4.83827 12.04C4.83827 16.4574 8.43575 20.0534 12.8549 20.0534Z" fill="#1B1B1B"/>
</svg>
